<?xml version="1.0" encoding="utf-8"?>
<!-- Generator: Adobe Illustrator 23.0.0, SVG Export Plug-In . SVG Version: 6.00 Build 0)  -->
<svg version="1.1" id="Capa_1" xmlns="http://www.w3.org/2000/svg" xmlns:xlink="http://www.w3.org/1999/xlink" x="0px" y="0px"
	 viewBox="0 0 200 200" style="enable-background:new 0 0 200 200;" xml:space="preserve">
<style type="text/css">
	.st0{filter:url(#Adobe_OpacityMaskFilter);}
	.st1{clip-path:url(#SVGID_2_);fill:url(#SVGID_4_);}
	.st2{clip-path:url(#SVGID_2_);mask:url(#SVGID_3_);fill:url(#SVGID_5_);}
	.st3{clip-path:url(#SVGID_7_);fill:url(#SVGID_8_);}
	.st4{filter:url(#Adobe_OpacityMaskFilter_1_);}
	.st5{clip-path:url(#SVGID_10_);fill:url(#SVGID_12_);}
	.st6{clip-path:url(#SVGID_10_);mask:url(#SVGID_11_);fill:url(#SVGID_13_);}
	.st7{fill:#70BBBC;}
	.st8{font-family:'Montserrat-SemiBold';}
	.st9{font-size:34.4737px;}
</style>
<g>
	<g>
		<g>
			<defs>
				<path id="SVGID_1_" d="M23.4,5.7c-4.1,0-7.5,3.4-7.5,7.5v111.6c0,4.1,3.4,7.5,7.5,7.5h79.1c4.1,0,7.5-3.4,7.5-7.5v-8.6
					c0-4.1-3.4-7.5-7.5-7.5h-57c-4.1,0-7.5-3.4-7.5-7.5v-88c0-4.1-3.4-7.5-7.5-7.5H23.4z"/>
			</defs>
			<clipPath id="SVGID_2_">
				<use xlink:href="#SVGID_1_"  style="overflow:visible;"/>
			</clipPath>
			<defs>
				<filter id="Adobe_OpacityMaskFilter" filterUnits="userSpaceOnUse" x="15.9" y="5.7" width="94.1" height="126.6">
					<feColorMatrix  type="matrix" values="1 0 0 0 0  0 1 0 0 0  0 0 1 0 0  0 0 0 1 0"/>
				</filter>
			</defs>
			<mask maskUnits="userSpaceOnUse" x="15.9" y="5.7" width="94.1" height="126.6" id="SVGID_3_">
				<g class="st0">
					
						<linearGradient id="SVGID_4_" gradientUnits="userSpaceOnUse" x1="-63.1054" y1="304.7951" x2="-62.3036" y2="304.7951" gradientTransform="matrix(117.4086 0 0 -117.4086 7425.0371 35854.5195)">
						<stop  offset="0" style="stop-color:#FFFFFF"/>
						<stop  offset="0.5258" style="stop-color:#FFFFFF"/>
						<stop  offset="0.5591" style="stop-color:#E0E0E0"/>
						<stop  offset="0.6275" style="stop-color:#A5A5A5"/>
						<stop  offset="0.696" style="stop-color:#737373"/>
						<stop  offset="0.7627" style="stop-color:#4A4A4A"/>
						<stop  offset="0.8276" style="stop-color:#292929"/>
						<stop  offset="0.8898" style="stop-color:#131313"/>
						<stop  offset="0.9486" style="stop-color:#050505"/>
						<stop  offset="1" style="stop-color:#000000"/>
						<stop  offset="1" style="stop-color:#000000"/>
					</linearGradient>
					<rect x="15.9" y="5.7" class="st1" width="94.1" height="126.6"/>
				</g>
			</mask>
			
				<linearGradient id="SVGID_5_" gradientUnits="userSpaceOnUse" x1="-63.1054" y1="304.7951" x2="-62.3036" y2="304.7951" gradientTransform="matrix(117.4086 0 0 -117.4086 7425.0371 35854.5195)">
				<stop  offset="0" style="stop-color:#8EC6BF"/>
				<stop  offset="0.4994" style="stop-color:#75B4C7"/>
				<stop  offset="0.5258" style="stop-color:#73B3C7"/>
				<stop  offset="0.6626" style="stop-color:#83BED0"/>
				<stop  offset="0.8422" style="stop-color:#90C9D7"/>
				<stop  offset="1" style="stop-color:#95CCDA"/>
				<stop  offset="1" style="stop-color:#95CCDA"/>
			</linearGradient>
			<rect x="15.9" y="5.7" class="st2" width="94.1" height="126.6"/>
		</g>
		<g>
			<defs>
				<path id="SVGID_6_" d="M81.1,69c0-21.9,17.8-39.7,39.7-39.7c21.9,0,39.7,17.8,39.7,39.7c0,21.9-17.8,39.7-39.7,39.7
					C98.8,108.7,81.1,90.9,81.1,69 M57.5,69c0,35,28.3,63.3,63.3,63.3c35,0,63.3-28.3,63.3-63.3c0-35-28.3-63.3-63.3-63.3
					C85.8,5.7,57.5,34,57.5,69"/>
			</defs>
			<clipPath id="SVGID_7_">
				<use xlink:href="#SVGID_6_"  style="overflow:visible;"/>
			</clipPath>
			
				<linearGradient id="SVGID_8_" gradientUnits="userSpaceOnUse" x1="-63.1789" y1="304.6814" x2="-62.3772" y2="304.6814" gradientTransform="matrix(157.8822 0 0 -157.8822 10032.3232 48172.7227)">
				<stop  offset="0" style="stop-color:#8FC7C0"/>
				<stop  offset="1" style="stop-color:#73BCBC"/>
				<stop  offset="1" style="stop-color:#73BCBC"/>
			</linearGradient>
			<rect x="57.5" y="5.7" class="st3" width="126.6" height="126.6"/>
		</g>
		<g>
			<defs>
				<path id="SVGID_9_" d="M81.1,70.9c0.4,8.2,3.3,15.8,7.9,22c1,1.3,2,2.5,3.1,3.6h28.1c0.1,0,0.1,0,0.2,0h0c0.1,0,0.1,0,0.2,0
					c3.8,0.1,6.9,3.2,6.9,7.1v0c0,0.1,0,0.2,0,0.2c0,0,0,0,0,0c0,0.1,0,0.3,0,0.4c0,1.2,0.1,2.4,0.2,3.6c0.9,8.7,5.2,16.4,11.5,21.8
					c0.5,0.4,0.9,0.8,1.4,1.1c5.6,4.3,12.6,6.8,20.1,6.8h9.1v-21.9h-9.1v0h0c-4,0-7.2-3.2-7.2-7.2c0-0.1,0-0.3,0-0.4
					c0-0.2,0-0.4,0.1-0.7c0.1-1,0.1-2.1,0.1-3.1c0-2.7-0.3-5.3-0.9-7.8c-0.3-1.2-0.7-2.4-1.1-3.6c-2.2-6.1-6.1-11.3-11.1-15.2
					c-5.6-4.3-12.6-6.8-20.2-6.8H81.1z"/>
			</defs>
			<clipPath id="SVGID_10_">
				<use xlink:href="#SVGID_9_"  style="overflow:visible;"/>
			</clipPath>
			<defs>
				<filter id="Adobe_OpacityMaskFilter_1_" filterUnits="userSpaceOnUse" x="81.1" y="70.9" width="88.7" height="66.6">
					<feColorMatrix  type="matrix" values="1 0 0 0 0  0 1 0 0 0  0 0 1 0 0  0 0 0 1 0"/>
				</filter>
			</defs>
			<mask maskUnits="userSpaceOnUse" x="81.1" y="70.9" width="88.7" height="66.6" id="SVGID_11_">
				<g class="st4">
					
						<linearGradient id="SVGID_12_" gradientUnits="userSpaceOnUse" x1="-63.2486" y1="304.9015" x2="-62.4469" y2="304.9015" gradientTransform="matrix(110.5872 0 0 -110.5872 7075.5425 33822.375)">
						<stop  offset="0" style="stop-color:#000000"/>
						<stop  offset="1.200000e-07" style="stop-color:#000000"/>
						<stop  offset="5.143441e-02" style="stop-color:#050505"/>
						<stop  offset="0.1102" style="stop-color:#131313"/>
						<stop  offset="0.1724" style="stop-color:#292929"/>
						<stop  offset="0.2373" style="stop-color:#4A4A4A"/>
						<stop  offset="0.304" style="stop-color:#737373"/>
						<stop  offset="0.3725" style="stop-color:#A5A5A5"/>
						<stop  offset="0.4409" style="stop-color:#E0E0E0"/>
						<stop  offset="0.4742" style="stop-color:#FFFFFF"/>
						<stop  offset="1" style="stop-color:#FFFFFF"/>
					</linearGradient>
					<rect x="81.1" y="70.9" class="st5" width="88.7" height="66.6"/>
				</g>
			</mask>
			
				<linearGradient id="SVGID_13_" gradientUnits="userSpaceOnUse" x1="-63.2486" y1="304.9015" x2="-62.4469" y2="304.9015" gradientTransform="matrix(110.5872 0 0 -110.5872 7075.5425 33822.375)">
				<stop  offset="0" style="stop-color:#95CCDA"/>
				<stop  offset="1.200000e-07" style="stop-color:#95CCDA"/>
				<stop  offset="0.1578" style="stop-color:#90C9D7"/>
				<stop  offset="0.3374" style="stop-color:#83BED0"/>
				<stop  offset="0.4742" style="stop-color:#73B3C7"/>
				<stop  offset="0.5006" style="stop-color:#75B4C7"/>
				<stop  offset="1" style="stop-color:#8EC6BF"/>
			</linearGradient>
			<rect x="81.1" y="70.9" class="st6" width="88.7" height="66.6"/>
		</g>
	</g>
	<text transform="matrix(1 0 0 1 47.1676 185.2042)"><tspan x="0" y="0" class="st7 st8 st9">LIF</tspan><tspan x="53.6" y="0" class="st7 st8 st9">E</tspan><tspan x="76.6" y="0" class="st7 st8 st9">Q</tspan></text>
</g>
</svg>
