<?xml version="1.0" encoding="utf-8"?>
<!-- Generator: Adobe Illustrator 23.0.0, SVG Export Plug-In . SVG Version: 6.00 Build 0)  -->
<svg version="1.1" id="Capa_1" xmlns="http://www.w3.org/2000/svg" xmlns:xlink="http://www.w3.org/1999/xlink" x="0px" y="0px"
	 viewBox="0 0 145 48" style="enable-background:new 0 0 145 48;" xml:space="preserve">
<g>
	<path d="M17.9,4.3c0.4,0.1,0.7,0.2,1.1,0.3c3.6,0.8,5.3,2.8,5.4,6.5c0,2.6-0.1,5.1,0.1,7.7c0.1,1.4,0.6,2.9,1.2,4.2
		c0.4,0.9,0.5,1.4-0.3,2c-0.3,0.2-0.6,0.5-0.9,0.7c-2.5,2.1-2.5,2.1-4.6-0.5c-0.1-0.2-0.3-0.3-0.4-0.5C15.2,29,7.9,28.3,6.7,22.6
		c0-1,0-1.9,0-2.9c1.8-6,7-5.9,12-6.6c0-0.6,0-1.1,0-1.6c0-1.4-0.6-2.5-2.1-2.8c-1.5-0.3-3.2,0.2-3.6,1.6c-0.5,1.6-1.5,1.6-2.7,1.3
		c-0.6-0.1-1.2-0.2-1.7-0.2c-1-0.1-1.3-0.4-1-1.4C8.1,8,9.1,6.4,11,5.6c1.2-0.6,2.5-0.9,3.7-1.3C15.8,4.3,16.9,4.3,17.9,4.3z
		 M18.9,16.6c-0.2-0.2-0.3-0.3-0.5-0.5c-1.4,0.4-2.9,0.6-4.2,1.2c-1.4,0.6-1.9,2.4-1.5,4.1c0.3,1.2,1,1.9,2.2,2
		c1.6,0,2.8-0.9,3.2-2.4C18.6,19.6,18.6,18.1,18.9,16.6z"/>
	<path d="M71.5,4.3c5.7,2,6.2,2.7,6.2,8.9c0,1.9-0.2,3.8,0.1,5.6c0.2,1.4,0.6,2.9,1.3,4.2c0.5,0.9,0.5,1.4-0.3,2
		c-0.1,0.1-0.2,0.2-0.4,0.3c-3,2.6-3,2.6-5.5-0.6c-0.4,0.4-0.9,0.7-1.3,1.1c-2.1,1.8-4.5,2.1-7.1,1.6c-2.3-0.5-3.8-2-4.2-4.3
		c-0.6-3,0-5.6,2.6-7.6c2.3-1.7,5-1.8,7.6-2.1c0.5-0.1,0.9-0.1,1.5-0.2c0.1-1.5,0.4-3-0.9-3.8C70.3,8.7,69,8.7,68,8.9
		c-0.7,0.1-1.5,0.9-1.8,1.6c-0.4,1.2-1.1,1.3-2.1,1.1c-0.5-0.1-1.1-0.2-1.6-0.2c-1.9-0.2-2.1-0.5-1.4-2.3c1-2.6,3.1-3.8,5.6-4.5
		C67.2,4.5,70.4,4.3,71.5,4.3z M72.3,16.6c-0.2-0.2-0.3-0.4-0.5-0.5c-1.4,0.4-3,0.7-4.3,1.3c-1.4,0.7-2,2.6-1.3,4.2
		c0.4,0.8,1.4,1.6,2.2,1.7c1.6,0.2,2.7-0.9,3.2-2.4C72,19.6,72.1,18.1,72.3,16.6z"/>
	<path d="M138.3,26.7c-1.6,0.1-3.2,0.3-4.9,0.3c-0.2,0-0.6-0.9-0.6-1.4c-0.1-3.8,0-7.6,0-11.4c0-0.9,0-1.9-0.3-2.7
		c-0.4-0.8-1.1-1.8-1.8-1.9c-0.8-0.1-2.1,0.5-2.5,1.1c-0.6,1.2-0.9,2.6-1,4c-0.1,3.6-0.1,7.2,0,10.7c0,1.2-0.4,1.6-1.6,1.6
		c-4,0-4,0.1-4-3.8c0-5.5,0.1-11,0-16.5c0-1.6,0.5-2,2-1.9c3,0.1,3,0,3.3,3.5c0.3-0.4,0.4-0.6,0.6-0.8c1.5-2.5,3.5-3.4,6.4-2.9
		c2.3,0.4,3.7,2.1,4.2,4.8c0.1,0.3,0.2,0.6,0.3,0.9C138.3,15.8,138.3,21.3,138.3,26.7z"/>
	<path d="M57.7,43.7c-1.6-0.3-3.2-0.6-4.8-0.8c-10.2-1.3-19.1-5.5-26.8-12.3c-0.2-0.2-0.3-0.4-0.3-0.9c0.5,0.2,1,0.4,1.4,0.6
		c8.2,4.6,17,7.2,26.3,8.2c11.3,1.2,22.2-0.4,32.8-4.5c0.6-0.3,1.4-0.1,2.2-0.1c-0.5,0.6-0.8,1.3-1.4,1.7c-6.1,4-12.8,6.2-20,7.2
		c-1.6,0.2-3.2,0.5-4.8,0.8C60.7,43.7,59.2,43.7,57.7,43.7z"/>
	<path d="M34.6,7.8c3.8-4.6,7.6-4.5,10.6,0.4c1.3-2.5,3.3-3.8,6.1-3.6c2.9,0.2,5.1,2.1,5.2,5.1c0.1,5.5,0,10.9,0,16.4
		c0,0.2,0,0.6-0.1,0.6c-1.5,0.2-3.1,0.4-4.6,0.5c-0.3,0-0.8-1-0.8-1.5c-0.1-4.3,0-8.7-0.1-13c0-2.1-1.2-3.3-2.9-2.7
		c-0.8,0.3-1.7,1.1-2.1,1.9c-0.4,0.8-0.4,1.9-0.4,2.8c0,3.7,0,7.4,0,11.1c0,1.1-0.3,1.5-1.5,1.5c-4.1,0.1-4.1,0.1-4.1-4
		c0-3.2,0-6.4,0-9.6c0-0.7-0.1-1.4-0.2-2.1c-0.3-1.1-1-1.8-2.1-1.8c-1.2,0-2.2,0.5-2.5,1.6c-0.3,1.1-0.5,2.2-0.5,3.3
		c-0.1,3.7-0.1,7.4,0,11.1c0,1.1-0.3,1.5-1.4,1.5c-4.1,0.1-4.1,0.1-4.1-4c0-5.5,0-11,0-16.5c0-1.3,0.4-1.8,1.8-1.7
		C34.1,4.9,34.1,4.9,34.6,7.8z"/>
	<path d="M118.5,16.1c0.1,3-0.6,5.7-2.4,8.1c-3.9,5-11.4,4.4-14.3-1.2c-2.3-4.5-2.3-9.3-0.1-13.9c1.5-3,4-4.6,7.5-4.6
		c3.5,0,6.2,1.4,7.7,4.5C117.8,11.2,118.6,16.1,118.5,16.1z M105.9,16.6c0,2.1-0.3,6.7,3.4,6.7c2.1,0,2.9-2.4,2.9-2.8
		c0-3,0.1-6.1-0.1-9.1c-0.1-1.5-1-2.6-2.7-2.6c-1.8,0-2.5,1.1-2.8,2.5C106.2,13,106.1,14.8,105.9,16.6z"/>
	<path d="M90,19.6c2.2,0.5,4.4,0.9,6.4,1.5c1.5,0.5,2.4,3.8,1.5,5c-0.2,0.2-0.8,0.4-1.1,0.2c-4.6-2.1-9.2-2-13.8,0.1
		c-0.2,0.1-0.5,0-0.9,0c0-2.5-0.5-4.8,1.3-7c2.4-3.1,4.6-6.5,7.1-10.1c-2.2,0-4.2,0-6.1,0c-1.2,0-1.8-0.4-1.7-1.7
		c0.1-0.5,0-1.1,0-1.6c-0.1-0.9,0.4-1.2,1.2-1.2c4.2,0,8.3,0,12.5,0c0.4,0,1.1,0.4,1,0.6c-0.1,1.4,0,3-0.7,4.1
		C94.7,13.1,92.2,16.3,90,19.6z"/>
	<path d="M89.8,40.6c0.6-1.7,1.2-3.2,1.6-4.8c1.4-4.9,0.3-5.4-4.5-5.3c-1.5,0-2.9,0.3-4.7,0.4c1.7-1.7,3.7-2.2,5.6-2.4
		c1.9-0.2,3.8,0,5.7,0.3c0.5,0.1,1.3,0.9,1.2,1.3c-0.2,3.9-1.4,7.4-4.4,10.2C90.3,40.5,90.1,40.5,89.8,40.6z"/>
</g>
</svg>
