<?xml version="1.0" encoding="utf-8"?>
<!-- Generator: Adobe Illustrator 23.0.0, SVG Export Plug-In . SVG Version: 6.00 Build 0)  -->
<svg version="1.1" id="Capa_1" xmlns="http://www.w3.org/2000/svg" xmlns:xlink="http://www.w3.org/1999/xlink" x="0px" y="0px"
	 viewBox="0 0 363 39" style="enable-background:new 0 0 363 39;" xml:space="preserve">
<g>
	<path d="M359.5,16.7c-0.8,0.3-1.6,0.6-2.3,0.9c-6,2.7-11.7,6.1-17.2,9.7c-4.5,2.9-8.8,6.1-12.9,9.6c-0.2,0.1-0.3,0.3-0.5,0.4
		c0,0-0.1,0-0.1,0c-1.1-0.9-2.2-1.8-3.3-2.7c-0.7-0.5-1.4-1.1-2.1-1.6c0.2-0.2,0.4-0.4,0.6-0.5c6.1-4.8,12.4-9.2,19.2-12.9
		c4.1-2.3,8.4-4.4,12.8-5.9c0.4-0.1,0.6-0.1,1,0.1C356.2,14.7,357.9,15.7,359.5,16.7C359.5,16.7,359.5,16.7,359.5,16.7z"/>
	<path d="M3.5,16.7c2.8,0,5.6-0.1,8.4,0c1.5,0,3,0.6,4,1.8c1.5,1.8,1.5,5.6-1.9,6.6c-0.1,0-0.2,0.1-0.3,0.1c0.3,0.1,0.6,0.2,0.9,0.3
		c2.3,0.8,3,2.8,2.8,4.8c-0.3,2.9-2.6,4.2-4.9,4.3c-2.8,0.1-5.7,0.1-8.5,0.1c-0.1,0-0.2,0-0.3-0.1C3.5,28.7,3.5,22.7,3.5,16.7z
		 M7.9,31.5c1.1,0,2.1,0.1,3.1,0c1.2-0.1,1.8-0.9,1.9-2c0.1-1.2-0.6-2-1.7-2.2c-0.3-0.1-0.5-0.1-0.8-0.1c-0.8,0-1.7,0-2.6,0
		c0,1.4,0,2.8,0,4.2C7.8,31.4,7.8,31.4,7.9,31.5z M7.8,24.2c1,0,2,0,2.9-0.1c0.9-0.1,1.5-0.8,1.6-1.7c0.1-1.1-0.3-1.9-1.2-2.2
		c-1.1-0.4-2.2-0.2-3.3-0.2c0,0.2,0,0.3,0,0.4C7.8,21.6,7.8,22.8,7.8,24.2z"/>
	<path d="M326.7,1.7c0.8,0.2,1.6,0.5,2.4,0.7c3.5,1,6.9,2.3,10.4,3.7c-0.4,0.1-0.6,0.2-0.9,0.3c-1,0.3-2,0.6-2.9,0.9
		c-0.2,0-0.4,0-0.6,0c-4.1-1.8-8.3-3.2-12.6-4.3c0,0,0,0-0.1-0.1c0.2-0.1,0.4-0.1,0.5-0.2c0.2-0.1,0.4-0.1,0.6-0.2
		c0.8-0.2,1.7-0.5,2.5-0.7c0.1,0,0.1-0.1,0.2-0.1C326.4,1.7,326.6,1.7,326.7,1.7z"/>
	<path d="M333.2,37.3c-0.1-0.1-0.2-0.1-0.3-0.2c-0.6-0.3-0.9-1-0.7-1.7c0.1-0.6,0.8-1.1,1.4-1.1c0.6,0,1.2,0.4,1.4,1
		c0.2,0.6-0.1,1.3-0.6,1.7c-0.1,0.1-0.2,0.2-0.3,0.2C333.7,37.3,333.5,37.3,333.2,37.3z M333.7,37c0.7,0,1.2-0.5,1.2-1.2
		c0-0.6-0.6-1.2-1.2-1.2c-0.7,0-1.2,0.5-1.2,1.1C332.4,36.5,332.9,37,333.7,37z"/>
	<path d="M168.8,16.6c1.7,0,3.3,0,4.9,0c0.1,0,0.3,0.2,0.4,0.4c1.4,3,2.9,5.9,4.3,8.9c0.1,0.1,0.1,0.3,0.2,0.5
		c0.5-1.1,1.1-2.2,1.6-3.3c1-2,1.9-4,2.9-6.1c0.1-0.3,0.3-0.4,0.7-0.4c1.5,0,3.1,0,4.7,0c0,0.2,0,0.3,0,0.4c0,5.7,0,11.4,0.1,17.2
		c0,0.4-0.1,0.6-0.6,0.6c-1,0-2.1,0-3.1,0c-0.1,0-0.3,0-0.5,0c0-4,0-7.9,0-11.9c0,0-0.1,0-0.1,0c-1.9,3.9-3.8,7.9-5.7,11.9
		c-1.9-4-3.8-8-5.7-11.9c0,0-0.1,0-0.1,0c0,3.9,0,7.9,0,11.9c-1.3,0-2.6,0-4,0C168.8,28.7,168.8,22.7,168.8,16.6z"/>
	<path d="M58.5,28.5c0-4,0-7.9,0-11.9c1.4,0,2.7,0,4.1,0c0,0.2,0,0.3,0,0.5c0,5.7,0,11.4,0,17.1c0,0.4-0.1,0.5-0.5,0.5
		c-1.2,0-2.4,0-3.6,0c-0.3,0-0.5-0.1-0.7-0.4c-2.4-3.7-4.7-7.4-7.1-11.1c-0.1-0.1-0.2-0.3-0.3-0.5c0,4,0,8,0,11.9
		c-1.4,0-2.7,0-4.1,0c0-6,0-12,0-18.1c0.2,0,0.3,0,0.5,0c1.2,0,2.5,0,3.7,0c0.3,0,0.5,0.1,0.7,0.4c2.4,3.7,4.8,7.5,7.1,11.2
		C58.3,28.4,58.4,28.5,58.5,28.5C58.5,28.6,58.5,28.6,58.5,28.5z"/>
	<path d="M107.3,35.2c-2.7-0.1-5-0.8-7-2.7c-1.5-1.5-2.4-3.5-2.6-5.6c-0.3-2.8,0.4-5.3,2.2-7.4c1.5-1.8,3.5-2.8,5.8-3.1
		c2.2-0.3,4.4-0.1,6.4,1c2.6,1.4,4.2,3.6,4.7,6.4c0.6,3,0,5.7-2,8.1c-1.4,1.7-3.2,2.7-5.3,3.1C108.7,35.1,108,35.1,107.3,35.2z
		 M112.3,25.7c-0.2-0.8-0.2-1.6-0.5-2.4c-0.6-2-2.3-3.4-4.5-3.4c-2.1,0-3.8,1.1-4.6,3.1c-0.7,1.8-0.7,3.7,0,5.5
		c1.4,3.5,6,4.1,8.2,1.1C112,28.5,112.3,27.1,112.3,25.7z"/>
	<path d="M349.1,10.7c-1.7,0.6-3.3,1.2-4.9,1.8c-5.4,2.1-10.6,4.8-15.5,7.9c-4.3,2.7-8.4,5.6-12.4,8.7c-0.2,0.2-0.4,0.2-0.6,0
		c-1.5-1-3-2.1-4.5-3.1c0.5-0.4,0.9-0.7,1.4-1.1c5.6-4.2,11.4-8,17.7-11.1c4.4-2.2,8.9-4.1,13.7-5.3c0.2,0,0.4-0.1,0.6,0
		C346,9.1,347.5,9.9,349.1,10.7z"/>
	<path d="M221.1,27.7c0,2.4,0,4.7,0,7.1c-1.5,0-2.9,0-4.3,0c0-6,0-12,0-18c0.2,0,0.3,0,0.5,0c2.4,0,4.9,0,7.3,0
		c1.1,0,2.2,0.3,3.2,0.8c2.1,1.1,2.6,3.3,2.4,5.4c-0.2,2.2-1.5,3.5-3.6,4.2c1.5,2.5,3,5.1,4.5,7.7c-0.6,0-1.2,0-1.7,0
		c-0.9,0-1.8,0-2.7,0c-0.3,0-0.5-0.1-0.6-0.4c-1.1-2.1-2.3-4.1-3.4-6.2c-0.2-0.4-0.5-0.7-1-0.6C221.4,27.7,221.3,27.7,221.1,27.7z
		 M221.1,19.9c0,1.6,0,3.2,0,4.7c1,0,1.9,0,2.8-0.1c1.1-0.1,1.7-0.9,1.7-2.1c0-1.1-0.4-2-1.6-2.2C223.1,20,222.1,20,221.1,19.9z"/>
	<path d="M80.3,25.4c2.1,3.1,4.3,6.2,6.5,9.4c-0.2,0-0.4,0-0.5,0c-1.4,0-2.8,0-4.2,0c-0.3,0-0.5-0.1-0.7-0.4
		c-1.8-2.8-3.6-5.6-5.4-8.3c-0.1-0.1-0.1-0.2-0.3-0.4c0,3.1,0,6.1,0,9.1c-1.5,0-2.9,0-4.4,0c0-6,0-12,0-18.1c1.4,0,2.9,0,4.4,0
		c0,2.8,0,5.7,0,8.5c0,0,0.1,0,0.1,0c0.1-0.1,0.2-0.2,0.3-0.4c1.7-2.6,3.4-5.2,5.1-7.8c0.2-0.3,0.4-0.4,0.7-0.4c1.5,0,2.9,0,4.5,0
		C84.2,19.6,82.2,22.5,80.3,25.4z"/>
	<path d="M162.4,34.8c-1.5,0-2.9,0-4.3,0c-0.1,0-0.3-0.2-0.3-0.3c-0.4-1-0.7-2.1-1-3.1c-0.1-0.3-0.2-0.4-0.5-0.4c-1.9,0-3.8,0-5.7,0
		c-0.3,0-0.5,0.1-0.6,0.4c-0.3,1-0.6,2-1,3c0,0.1-0.2,0.3-0.3,0.3c-1.4,0-2.8,0-4.3,0c0-0.2,0.1-0.3,0.1-0.4
		c2.2-5.8,4.3-11.5,6.5-17.3c0.1-0.3,0.2-0.4,0.5-0.4c1.2,0,2.5,0,3.7,0c0.3,0,0.4,0.1,0.5,0.3c2.2,5.8,4.4,11.6,6.6,17.4
		C162.3,34.5,162.4,34.6,162.4,34.8z M153.4,21.1c-0.8,2.3-1.5,4.4-2.2,6.6c1.5,0,2.8,0,4.3,0C154.8,25.5,154.1,23.3,153.4,21.1z"/>
	<path d="M268.5,34.8c0.6-1.7,1.2-3.3,1.9-5c1.6-4.2,3.2-8.5,4.8-12.7c0.1-0.4,0.3-0.5,0.7-0.5c1.2,0,2.4,0,3.6,0
		c0.2,0,0.4,0.1,0.4,0.3c2.2,5.9,4.4,11.7,6.6,17.6c0,0.1,0,0.1,0.1,0.3c-0.5,0-0.9,0-1.4,0c-0.9,0-1.9,0-2.8,0
		c-0.3,0-0.4-0.1-0.5-0.4c-0.3-1-0.7-2-1-3.1c-0.1-0.3-0.2-0.4-0.5-0.4c-1.9,0-3.9,0-5.8,0c-0.3,0-0.4,0.1-0.5,0.4
		c-0.3,1-0.7,2.1-1,3.1c0,0.1-0.2,0.3-0.3,0.3C271.4,34.8,270,34.8,268.5,34.8z M275.3,27.7c1.5,0,2.9,0,4.3,0
		c-0.7-2.2-1.4-4.3-2.1-6.6C276.8,23.3,276.1,25.5,275.3,27.7z"/>
	<path d="M40.1,34.8c-0.1,0-0.2,0-0.3,0c-1.3,0-2.6,0-3.9,0c-0.3,0-0.4-0.1-0.5-0.4c-0.3-1-0.7-2-1-3c-0.1-0.3-0.2-0.4-0.6-0.4
		c-1.9,0-3.8,0-5.6,0c-0.3,0-0.5,0.1-0.6,0.4c-0.3,1-0.7,2-1,3c-0.1,0.3-0.2,0.4-0.5,0.4c-1.2,0-2.5,0-3.7,0c-0.1,0-0.2,0-0.4,0
		c0.1-0.2,0.1-0.3,0.1-0.4c2.2-5.8,4.3-11.5,6.5-17.3c0.1-0.3,0.2-0.4,0.6-0.4c1.2,0,2.5,0,3.7,0c0.2,0,0.4,0.1,0.4,0.3
		c2.2,5.8,4.4,11.7,6.6,17.5C40,34.5,40,34.6,40.1,34.8z M31.1,21.2C31.1,21.2,31,21.2,31.1,21.2c-0.8,2.1-1.5,4.3-2.2,6.4
		c1.5,0,2.9,0,4.3,0C32.4,25.5,31.8,23.4,31.1,21.2z"/>
	<path d="M201.5,23.9c2.1,0,4.1,0,6.2,0c0,1.1,0,2.2,0,3.4c-2.1,0-4.1,0-6.2,0c0,1.4,0,2.7,0,4c0.2,0,0.3,0,0.5,0c2.3,0,4.7,0,7,0
		c0.4,0,0.5,0.1,0.5,0.5c0,0.9,0,1.8,0,2.7c0,0.3-0.1,0.4-0.4,0.4c-4,0-7.9,0-11.9,0c0,0-0.1,0-0.2,0c0-6,0-12,0-18.1
		c4.1,0,8.3,0,12.4,0c-0.3,1.1-0.5,2.3-0.8,3.5c-2.4,0-4.8,0-7.2,0C201.5,21.4,201.5,22.6,201.5,23.9z"/>
	<path d="M263.4,21.3c-1-0.4-1.9-0.9-2.8-1.2c-2.2-0.6-4.2-0.3-5.8,1.4c-1.3,1.3-1.6,3-1.5,4.7c0.1,1.4,0.6,2.6,1.7,3.6
		c1.2,1.1,2.7,1.5,4.3,1.5c1.5,0,2.9-0.5,4.1-1.4c0,0,0.1-0.1,0.1-0.1c0,0,0.1,0,0.1,0c0,0.1,0,0.3,0,0.4c0,1,0,2,0,3
		c0,0.4-0.1,0.5-0.4,0.7c-1.3,0.6-2.6,0.9-4,1c-1.8,0.1-3.6-0.1-5.3-0.8c-3-1.3-4.7-3.6-5.3-6.8c-0.4-2.1-0.1-4.1,0.7-6
		c1.3-2.9,3.7-4.5,6.7-5.1c2.2-0.4,4.4-0.3,6.5,0.6c0.8,0.3,0.8,0.3,0.8,1.2C263.4,19.3,263.4,20.3,263.4,21.3z"/>
	<path d="M123,34.7c0-6,0-12,0-18.1c4,0,8.1,0,12.1,0c-0.2,1.1-0.5,2.1-0.7,3.2c-0.1,0.3-0.3,0.2-0.5,0.2c-2,0-4,0-6,0
		c-0.2,0-0.3,0-0.6,0c0,1.3,0,2.6,0,4c1.9,0,3.8,0,5.7,0c0,1.2,0,2.3,0,3.5c-1.9,0-3.8,0-5.7,0c0,2.4,0,4.7,0,7.1
		C125.9,34.7,124.4,34.7,123,34.7z"/>
	<path d="M237.6,34.7c0-6,0-12,0-18c1.5,0,2.9,0,4.4,0c0,6,0,12,0,18C240.5,34.7,239.1,34.7,237.6,34.7z"/>
	<path d="M321.8,13.1c-1.2,0.7-2.4,1.3-3.6,2c-4,2.3-7.8,5-11.6,7.7c-0.3,0.2-0.5,0.2-0.8,0.1c-1.3-0.8-2.7-1.5-4.1-2.3
		c0.1-0.1,0.2-0.2,0.3-0.2c4.7-3.3,9.6-6.4,14.7-9c0.3-0.2,0.5-0.2,0.8,0C319,11.9,320.4,12.5,321.8,13.1z"/>
	<path d="M313,9.5c-1.4,0.7-2.7,1.4-4,2.1c-3.7,2-7.3,4.3-10.9,6.6c-0.3,0.2-0.5,0.2-0.8,0.1c-1.1-0.5-2.1-1-3.2-1.4
		c-0.1-0.1-0.2-0.1-0.4-0.2c0.1-0.1,0.2-0.2,0.3-0.2c4.6-2.9,9.4-5.7,14.4-8c0.3-0.2,0.7-0.2,1-0.1c1.1,0.4,2.2,0.7,3.3,1
		C312.8,9.4,312.9,9.5,313,9.5z"/>
	<path d="M313.7,6.2c0.4-0.2,0.7-0.3,1.1-0.5c1-0.4,2-0.8,3-1.2c0.2-0.1,0.5-0.1,0.7-0.1c4.1,1,8.2,2.4,12.1,4.2
		c0.1,0.1,0.3,0.1,0.5,0.2c-1,0.4-1.9,0.8-2.7,1.2c-0.4,0.2-0.8,0.3-1.1,0.5c-0.4,0.2-0.7,0.2-1.2,0c-3.7-1.8-7.7-3.1-11.7-4.3
		C314.1,6.3,313.9,6.3,313.7,6.2z"/>
	<path d="M333.9,36c0.1,0.2,0.3,0.4,0.4,0.7c-0.6,0-0.5-0.8-1-0.7c0,0.2,0,0.5-0.1,0.7c0,0-0.1,0-0.1,0c0-0.5,0-1,0-1.6
		c0.2,0,0.4,0,0.6,0c0.3,0,0.6,0,0.6,0.3c0,0.2-0.2,0.4-0.3,0.6C334,36,333.9,36,333.9,36z M333.6,35.9c0.2-0.2,0.3-0.3,0.5-0.4
		c-0.2-0.1-0.3-0.2-0.5-0.3c-0.2,0-0.4,0-0.3,0.3C333.3,35.6,333.4,35.7,333.6,35.9z"/>
</g>
</svg>
