<?xml version="1.0" encoding="utf-8"?>
<!-- Generator: Adobe Illustrator 23.0.0, SVG Export Plug-In . SVG Version: 6.00 Build 0)  -->
<svg version="1.1" id="Capa_1" xmlns="http://www.w3.org/2000/svg" xmlns:xlink="http://www.w3.org/1999/xlink" x="0px" y="0px"
	 viewBox="0 0 139 66" style="enable-background:new 0 0 139 66;" xml:space="preserve">
<g id="yhfuba_3_">
	<g>
		<path d="M30.7,25.2c1.3,0.1,2.5,0.2,3.6,0.3c2.5,0.2,5,0.6,7.4,1.5c1.2,0.5,2.4,1.1,3.3,2.1c0.7,0.8,1.1,1.7,1.1,2.8
			c0,1.9-1.8,3.7-3.6,3.8c-1,0.1-1.9-0.2-2.6-0.9c-0.1-0.1-0.2-0.3,0-0.4c0.2-0.2,0.5-0.4,0.7-0.5c0.3-0.2,0.7-0.3,1-0.4
			c0.4-0.2,0.7-0.4,0.7-0.8c0-0.3-0.1-0.5-0.3-0.7c-0.4-0.4-1-0.7-1.6-0.9c-1.4-0.5-2.8-0.7-4.2-0.9c-1.8-0.3-3.7-0.5-5.6-0.5
			c-0.1,0-0.2,0-0.3,0c0,0.3-0.1,0.6-0.1,1c0,2.3-0.1,4.6-0.1,6.9c0,1.1,0,2.2,0,3.3c0,0.3,0.1,0.3,0.3,0.4c1.8,0.4,3.7,0.7,5.6,0.7
			c2.9,0.1,5.7-0.2,8.4-1c1.8-0.5,3.5-1.3,5-2.4c2.4-1.9,3.5-4.3,3.3-7.4c-0.1-2.2-1-4.1-2.2-5.8c-1.6-2.3-3.6-4.3-5.8-6
			c-2.9-2.3-6-4-9.3-5.7c-3.6-1.8-7.3-3.2-11.3-4.1c-2.6-0.6-5.2-0.9-7.8-1c-1.7-0.1-3.5,0-5.2,0.3c-0.7,0.1-1.5,0.4-2.2,0.7
			c0.2,0.1,0.4,0.2,0.6,0.3c0.4,0.1,0.8,0.2,1.2,0.3c0.3,0.1,0.6,0.2,0.6,0.6c0,0.2-0.2,0.5-0.6,0.6c-1.1,0.3-2.1,0.3-3.2-0.1
			C7.5,11.1,7.2,11,7,10.8c-0.4-0.3-0.5-1-0.2-1.4c0.3-0.5,0.7-1.1,1-1.6c0.5-0.7,1.1-1.1,1.9-1.3c1.2-0.4,2.5-0.6,3.8-0.8
			c0.9-0.1,1.8-0.2,2.7-0.3c0.6,0,1.1,0,1.7,0c2.4-0.1,4.8,0.3,7.1,0.7c4.4,0.8,8.7,2.1,12.7,4c4.3,2.1,8.4,4.5,12,7.7
			c2.9,2.5,5.2,5.5,6.9,8.9c0.8,1.7,1.3,3.6,1.3,5.5c-0.1,3.4-1.3,6.3-3.7,8.8c-1.8,1.8-4,2.9-6.3,3.7c-3.3,1.1-6.8,1.6-10.3,1.5
			c-2.4-0.1-4.8-0.4-7.1-1.1c0,0-0.1,0-0.1,0c0,0.3-0.1,0.7-0.1,1c-0.4,1.6-1.8,2.1-3.2,1.6c-0.4-0.2-0.7-0.5-0.9-0.8
			c-0.3-0.7-0.5-1.4-0.6-2.1c-0.1-0.4-0.1-0.8-0.1-1.1c0-0.2-0.1-0.3-0.3-0.4c-2.3-1.2-4.5-2.6-6.5-4.3c-1.5-1.3-2.9-2.7-4.1-4.3
			c-0.4-0.6-0.8-1.2-0.9-1.9c-0.2-1,0.2-1.9,0.9-2.7c0.7-0.8,1.7-1.3,2.7-1.8c2.3-1.1,4.8-1.8,7.4-2.2c0.5-0.1,0.9-0.2,1.4-0.2
			c0.2,0,0.3-0.1,0.3-0.3c0.1-1.9,0.3-3.8,0.7-5.6c0.2-0.8,0.4-1.6,0.6-2.3c0.1-0.2,0.2-0.4,0.3-0.6c0.2-0.4,0.5-0.4,0.9-0.2
			c0.1,0.1,0.3,0.2,0.4,0.3c0.8,0.9,1.3,2,1.4,3.2c0.1,1.3,0.1,2.7,0.2,4C30.7,24.5,30.7,24.9,30.7,25.2z M26,29.7
			c-0.1,0-0.1,0-0.2,0c-1.7,0.1-3.4,0.2-5.1,0.4c-1.3,0.2-2.6,0.5-3.9,0.8c-0.4,0.1-0.9,0.4-1.2,0.6c-0.5,0.3-0.5,0.7-0.3,1.2
			c0.1,0.2,0.2,0.4,0.4,0.6c0.6,0.6,1.1,1.2,1.8,1.7c2,1.8,4.4,3.1,6.9,4.2c0.3,0.2,0.7,0.3,1.1,0.5C25.7,36.4,26,33.1,26,29.7z"/>
		<path d="M122.3,26.7c0.2,0.6,0.2,1.2,0,1.9c-0.3,1.2-1,2.2-1.6,3.2c-0.6,0.9-1.2,1.8-1.7,2.8c-0.5,1-0.8,2.1-0.8,3.3
			c0,0.1,0,0.2,0,0.3c0,0,0,0,0.1,0.1c0.3-0.4,0.7-0.8,1-1.2c1.3-1.6,2.5-3.1,3.8-4.6c1.1-1.3,2.4-2.4,3.9-3.1
			c0.7-0.3,1.3-0.5,2.1-0.5c1.3,0,2.1,0.7,2.7,1.8c0.4,0.7,0.6,1.4,0.6,2.1c0.1,1.6,0.1,3.1-0.5,4.6c-0.6,1.6-1.5,3-2.6,4.3
			c-1.1,1.2-2.3,2.4-3.8,3.1c-1.5,0.8-3.2,1-4.8,0.6c-0.2,0-0.3-0.1-0.4,0.2c-1.6,3.6-2.8,7.3-3.6,11.2c-0.2,0.9-0.3,1.8-0.5,2.7
			c0,0.2-0.1,0.5-0.2,0.7c-0.2,0.5-0.6,0.6-1.1,0.5c-0.4-0.1-0.8-0.4-1.1-0.8c-1.3-1.5-1.9-3.3-1.7-5.3c0.3-2.6,1-5,1.9-7.4
			c0.6-1.6,1.4-3.1,2-4.6c0-0.1,0.1-0.3,0-0.4c-1-2-1.1-4.1-0.5-6.2c0.7-2.7,2.1-5,4-7.1c0.4-0.5,0.9-1,1.4-1.4
			C121.3,27.1,121.7,26.8,122.3,26.7z M122.5,40.8c0.8,0,2.1-0.4,3.1-0.9c3-1.5,4.5-3.8,4.4-7.2c0-0.4-0.3-0.6-0.7-0.5
			c-0.1,0.1-0.2,0.1-0.3,0.2c-0.5,0.4-1.1,0.8-1.5,1.3c-1.7,1.9-3.3,4-4.6,6.3C122.8,40.4,122.6,40.6,122.5,40.8z"/>
		<path d="M69.1,31.2c0.4,0.4,0.9,0.6,1.4,0.6c1.4,0.2,2.9,0.3,4.3,0.5c1.6,0.2,3.2,0.3,4.8,0.8c0.4,0.1,0.8,0.3,1.2,0.5
			c1.1,0.5,1.8,1.4,2.1,2.6c0.3,1.6,0.2,3.2-0.4,4.7c-0.3,0.9-0.9,1.4-1.8,1.8c-1.3,0.6-2.8,0.9-4.2,1.1c-1.8,0.2-3.5,0.1-5.3-0.4
			c-1.5-0.5-2.8-1.2-3.9-2.3c-0.3-0.4-0.6-0.8-0.9-1.3c-0.7-1.4-0.2-2.8,1.2-3.7c0.9-0.5,1.8-0.8,2.9-0.8c2.1,0,4.2,0.3,6.2,1.1
			c0.4,0.2,0.8,0.4,1.2,0.7c0.5,0.4,0.4,1-0.1,1.3c-0.5,0.4-1.1,0.5-1.7,0.5c-1.1,0.1-2.1,0.1-3.2-0.2c-0.5-0.1-1-0.4-1.5-0.6
			c-0.5-0.2-1-0.5-1.6-0.7c-0.6-0.2-1.2,0-1.6,0.6c-0.3,0.5-0.3,1,0.2,1.3c0.4,0.3,0.9,0.5,1.4,0.6c1.8,0.4,3.6,0.4,5.4,0.1
			c1.2-0.2,2.4-0.5,3.5-1.1c0.4-0.2,0.7-0.4,1-0.7c0.6-0.5,0.5-1.2-0.1-1.7c-0.6-0.5-1.3-0.7-2.1-0.9c-1.5-0.4-3.1-0.6-4.7-0.7
			c-1.8-0.1-3.6-0.2-5.3-0.6c-0.2-0.1-0.5-0.1-0.7-0.2c-0.9-0.3-1.3-0.9-1.4-1.8c0-1,0.2-2,0.7-3c0.4-0.7,1.1-1.2,1.8-1.5
			c1.4-0.7,2.9-1.1,4.5-1.4c2.5-0.5,5-0.4,7.4-0.1c1,0.1,2,0.2,3,0.6c0.3,0.1,0.5,0.2,0.8,0.4c0.3,0.2,0.4,0.5,0.3,0.8
			c-0.3,1.1-0.8,1.6-1.8,1.7c-1.3,0.1-2.6,0.1-3.9,0.2c-2.3,0.2-4.7,0.4-7,0.6c-0.5,0-1,0.2-1.4,0.3C69.6,30.8,69.4,31,69.1,31.2z"
			/>
		<path d="M104,31.2c-0.5-0.2-1-0.3-1.5-0.5c-0.8-0.4-1.3-1.1-1.5-2c0-0.2,0-0.3,0.2-0.4c0.8-0.4,1.6-0.6,2.5-0.7
			c1.8-0.2,3.6-0.4,5.4-0.5c0.8-0.1,1.5-0.1,2.3-0.1c0.6,0,1.1,0,1.7,0.1c0.5,0,0.9,0.3,1.3,0.6c0.6,0.5,1.1,1.1,1.4,1.7
			c0,0,0,0.1,0.1,0.1c0.4,1,0.1,1.4-0.8,1.6c-0.8,0.1-1.7,0.2-2.5,0.3c-1.6,0.1-3.2,0.2-4.8,0.2c-0.2,0-0.3,0-0.3,0.2
			c-0.2,0.6-0.4,1.3-0.7,2c0.6,0,1.1,0,1.6,0c1.1,0,2.3-0.1,3.4,0.2c0.3,0.1,0.4,0.2,0.4,0.5c0.1,0.7,0.1,1.3-0.1,2
			c0,0.2-0.1,0.3-0.3,0.3c-0.8,0.2-1.5,0.3-2.3,0.3c-1.2,0-2.4,0-3.6,0c-0.4,0-0.6,0.1-0.7,0.5c-0.3,0.9-0.5,1.8-0.8,2.6
			c0,0.1,0,0.1,0,0.2c0.5-0.1,1-0.1,1.6-0.2c1.6-0.2,3.3-0.4,4.9-0.6c0.1,0,0.3,0,0.5,0c1-0.2,2.1,1.2,1.8,2.1
			c-0.1,0.4-0.4,0.7-0.7,1c-0.7,0.6-1.5,1.1-2.3,1.5c-1.5,0.8-3,1.4-4.6,1.7c-1,0.2-2,0.2-2.9-0.2c-1.4-0.7-2.1-1.8-2.3-3.3
			c-0.2-1.4-0.1-2.8,0.6-4.1c0.4-0.7,0.5-1.5,0.1-2.3c-0.2-0.4-0.2-0.9-0.1-1.3c0.1-0.1,0.2-0.3,0.3-0.3c0.4-0.1,0.7-0.2,1.1-0.3
			c0.1,0,0.2-0.1,0.3-0.2c0.1-0.1,0.2-0.2,0.2-0.3C103.3,32.7,103.6,31.9,104,31.2z"/>
		<path d="M88.5,34c-0.1,0.7-0.3,1.4-0.3,2.1c-0.1,1.5-0.2,3.1-0.3,4.6c-0.1,0.8-0.2,1.6-0.4,2.3c-0.2,0.8-0.6,1-1.4,1.1
			c-1,0.1-1.6-0.3-1.9-1.2c-0.3-0.7-0.3-1.5-0.3-2.2c0-1.8,0.2-3.5,0.5-5.3c0.2-1.5,0.5-3.1,1-4.6c0.2-0.7,0.6-1.4,0.9-2.1
			c0.1-0.3,0.4-0.6,0.6-0.8c0.5-0.4,1-0.5,1.6-0.1c0.4,0.3,0.7,0.6,0.9,1c1.7,2.2,3.2,4.6,4.5,7c0.3,0.5,0.6,1.1,0.9,1.6
			c0.1,0.3,0.3,0.5,0.7,0.5c0-0.5,0-1,0-1.6c-0.1-2.4-0.6-4.7-1.2-7.1c-0.3-1.1-0.6-2.2-0.8-3.3c-0.1-0.4-0.1-0.9,0-1.3
			c0.1-0.6,0.4-0.7,1-0.5c0.5,0.2,0.9,0.5,1.2,0.9c1.7,1.9,2.7,4.1,3.3,6.6c0.5,2.4,0.6,4.7,0.2,7.1c-0.2,1-0.4,2-0.9,2.9
			c-0.5,0.8-1.1,1.5-2.1,1.7c-0.9,0.2-1.7,0-2.4-0.6c-0.7-0.6-1.2-1.3-1.6-2c-0.8-1.5-1.6-3-2.4-4.6c-0.4-0.7-0.8-1.3-1.1-2
			C88.7,34.1,88.6,34,88.5,34C88.5,34,88.5,34,88.5,34z"/>
		<path d="M60,22.9c-0.2,0.3-0.4,0.6-0.6,0.9c-0.5,0.8-1.4,0.9-2,0.1c-0.2-0.3-0.4-0.6-0.6-1c-0.2-0.4-0.2-0.9,0-1.3
			c0.1-0.3,0.1-0.6-0.1-0.9c-1.5-1.3-1.3-3.7-0.3-5.2c1.3-2.1,3.1-3.6,5.5-4.5c1.7-0.6,3.5-0.9,5.3-0.8c0.7,0,1.4,0.2,2.1,0.6
			c0.4,0.2,0.7,0.6,0.9,1c0.1,0.2,0.2,0.2,0.3,0.2c0.4,0.1,0.8,0.1,1.2,0.2c1.4,0.5,2.1,1.6,2,3c-0.1,1.2-0.5,2.2-1.2,3.1
			c-1.2,1.7-2.7,2.9-4.5,3.9c-1.2,0.6-2.4,1.1-3.8,1.3C62.8,23.7,61.4,23.6,60,22.9z M61.5,20.2c1.4,0.3,2.7,0.3,4,0
			c1.5-0.3,2.9-0.8,4-1.9c0.6-0.6,1.2-1.3,1.4-2.1c0.3-1-0.1-1.7-1-1.9c-0.2,0-0.4,0-0.5,0c-0.8,0.1-1.6,0.4-2.3,0.7
			c-1.5,0.8-2.7,1.9-3.9,3.1C62.6,18.8,62.1,19.5,61.5,20.2z M58.5,18.4c1.6-1.9,3.2-3.6,5.2-4.9c-0.3,0-0.6,0-0.8,0
			c-1.4,0.2-2.6,0.7-3.5,1.8C58.6,16.1,58.3,17.2,58.5,18.4z"/>
		<path d="M63.8,35.6c0,1.4,0,2.9,0,4.3c0,1,0,2-0.3,3c-0.2,0.8-0.4,1-1.3,1.1c-0.5,0-1,0-1.5-0.2c-0.6-0.2-1-0.6-1-1.1
			c-0.1-0.8-0.2-1.7-0.2-2.5c0-3,0.1-6,0.4-9c0.1-1.3,0.3-2.5,0.6-3.8c0.1-0.3,0.2-0.6,0.4-0.9c0.3-0.5,0.8-0.6,1.3-0.3
			c0.3,0.2,0.6,0.4,0.8,0.7c0.6,0.8,0.8,1.8,0.9,2.7C63.8,31.6,63.8,33.6,63.8,35.6C63.9,35.6,63.9,35.6,63.8,35.6z"/>
		<path d="M120.8,58.3c0,0.7-0.4,1.2-1,1.2c-0.6,0-1.2-0.6-1.2-1.3c0-0.6,0.5-1.1,1.2-1.1C120.4,57.2,120.8,57.6,120.8,58.3z
			 M119.8,57.3c-0.6,0-1,0.4-1,0.9c0,0.6,0.4,1.1,1,1.1c0.5,0,0.9-0.4,0.9-1C120.6,57.7,120.3,57.3,119.8,57.3z"/>
		<path d="M120.1,58.8c-0.2,0.2-0.5,0.3-0.7,0.1c-0.3-0.2-0.4-0.8-0.2-1.1c0.2-0.2,0.5-0.3,0.9-0.1c-0.2,0-0.3,0-0.4,0.1
			c-0.4,0-0.5,0.2-0.5,0.5c0,0.3,0.2,0.5,0.6,0.5C119.9,58.8,120,58.8,120.1,58.8z"/>
	</g>
</g>
</svg>
