<?xml version="1.0" encoding="utf-8"?>
<!-- Generator: Adobe Illustrator 23.0.0, SVG Export Plug-In . SVG Version: 6.00 Build 0)  -->
<svg version="1.1" id="Capa_1" xmlns="http://www.w3.org/2000/svg" xmlns:xlink="http://www.w3.org/1999/xlink" x="0px" y="0px"
	 viewBox="0 0 164 39" style="enable-background:new 0 0 164 39;" xml:space="preserve">
<g>
	<path d="M84.2,33.7c-2.2,2.2-4.5,0.9-6.9,1.2c0-10.1,0-19.9,0-30.1c1.9-0.2,4-0.5,6.3-0.8c0,4.2,0,8.1,0,12.1
		c1.6-0.7,2.9-1.5,4.3-1.8c4.1-0.7,7.9,1.7,8.8,5.7c0.5,2.4,0.8,5.1,0.5,7.6C96.2,34.7,90.4,37.2,84.2,33.7z M91,24.5
		c-0.1-0.8,0-2.2-0.7-3.1c-0.6-0.9-2-1.8-3.1-1.8c-1,0-2.8,1.1-3,1.9c-0.4,2.1-0.5,4.4,0,6.4c0.3,1,2.2,2.2,3.3,2.2
		c1.1-0.1,2.3-1.5,3.1-2.5C91.1,26.8,90.9,25.7,91,24.5z"/>
	<path d="M161.4,34.4c-7.7,2.9-8.8-3.8-12.2-8.1c0,3.2,0,5.7,0,8.4c-2.2,0-4.1,0-6.3,0c0-9.9,0-19.8,0-30c1.9-0.2,3.8-0.5,6.2-0.8
		c0,3.4,0,6.4,0,9.5c0,3.1,0,6.2,0,9.2c0.1,0.1,0.3,0.1,0.4,0.2c1.1-1.7,2.4-3.3,3.3-5.1c1.2-2.3,2.8-3.5,5.4-3c0.9,0.2,1.9,0,3.4,0
		c-1.9,3-3.5,5.7-5.2,8.3c-0.9,1.3-0.9,2.2,0,3.5C158.1,29.1,159.7,31.8,161.4,34.4z"/>
	<path d="M31.2,16.5c1.4-3.4,4.1-1.1,6.2-2c0,6.9,0,13.5,0,20.5c-2.1-0.8-4.7,1.6-6.1-1.8c-6.1,4.6-13.3,0.9-13.5-6.5
		c0-1.8-0.1-3.5,0.1-5.2C19,14.2,26.8,12.1,31.2,16.5z M31,24.8C31,24.8,31,24.8,31,24.8c0-0.6,0-1.2,0-1.8c0-2.2-1.2-3.5-3.4-3.5
		c-2.2,0-3.3,1.3-3.4,3.5c0,1.5-0.2,3,0.1,4.5c0.3,1.9,1.7,2.8,3.6,2.7c1.9-0.1,2.9-1.2,3.1-3C31.1,26.4,31,25.6,31,24.8z"/>
	<path d="M130.5,35.2c-6.7-0.2-10.1-3.9-9.9-10.6c0.2-6.9,3.9-10.5,10.6-10.3c6.2,0.2,9.7,4.3,9.6,11.1
		C140.6,31.7,136.7,35.4,130.5,35.2z M134.4,24.8c-0.1,0-0.1,0-0.2,0c0-0.7,0.1-1.4,0-2.1c-0.4-1.9-1.4-3.2-3.5-3.2
		c-2.1,0-3.3,1.2-3.5,3.1c-0.2,1.6-0.4,3.5,0.2,4.9c0.5,1.2,2.2,2.4,3.4,2.5c1,0.1,2.3-1.4,3.2-2.4
		C134.4,26.9,134.2,25.7,134.4,24.8z"/>
	<path d="M119.1,24.8c0,6.7-3.5,10.4-9.9,10.4c-6.6,0-10.3-3.6-10.3-10c0-7.1,3.5-10.9,10-10.9C115.5,14.3,119.1,18,119.1,24.8z
		 M112.7,25c0,0-0.1,0-0.1,0c0-0.6,0-1.2,0-1.8c-0.1-2.1-1.1-3.5-3.4-3.7c-2.2-0.1-3.5,1-3.7,3.2c-0.1,1.7-0.2,3.6,0.3,5.2
		c0.4,1,2,2.2,3.1,2.2c1.1,0,2.4-1.1,3.2-2C112.7,27.3,112.5,26,112.7,25z"/>
	<path d="M73.5,29.5c0.4,1.4,0.8,2.6,1.1,3.8C71,35.8,63,36.1,59.7,33.5c-1.5-1.2-2.7-3.1-3.1-4.9c-0.5-2.5-0.4-5.3,0-7.8
		c0.6-4.3,4.8-6.7,10.4-6.4c5,0.3,7.9,3.2,8.1,8.2c0.1,1.4,0,2.8,0,4.5C71,27,67,27,63,27C63.4,30.8,65,31.1,73.5,29.5z M68.9,22.7
		c0.3-0.2,0.5-0.4,0.8-0.6c-0.6-1-1.1-2.4-2-2.8c-1-0.4-2.6-0.3-3.6,0.3c-0.8,0.4-1,1.8-1.6,3.1C65,22.7,67,22.7,68.9,22.7z"/>
	<path d="M17.6,3.7c0,2.3,0,3.8,0,5.2c-5.2,1.8-5.2,1.8-4.8,5.5c1.5,0.1,3.1,0.2,4.6,0.3c0.2,5.1,0.2,5.1-4.8,5.6
		c0,4.6,0,9.2,0,14.1c-2.1,0-4,0-6.2,0c0-4.6,0-9.2,0-14.1c-1.5-0.1-2.6-0.2-4-0.3c0-1.7,0-3.4,0-5.2c1.2-0.1,2.3-0.2,3.7-0.4
		C6.2,11,5.6,7,9.3,5.3C11.7,4.2,14.6,4.2,17.6,3.7z"/>
	<path d="M54.4,20c-2.8-0.3-6.1-2-7.6,1.1c-1,2-0.6,4.9,0.1,7.2c0.5,2,2.5,2.1,7.5,1.3c0.3,0.8,0.6,1.6,0.9,2.4
		c0.6,1.5,0.2,2.2-1.4,2.7c-4.6,1.5-10,0.4-12.5-2.7c-2.5-3.1-2.8-9.9-0.5-13.6c2.4-3.9,9.8-5.6,13.8-3.2c0.4,0.3,0.8,1.1,0.8,1.6
		C55.3,17.9,54.8,19,54.4,20z"/>
</g>
</svg>
