<?xml version="1.0" encoding="utf-8"?>
<!-- Generator: Adobe Illustrator 23.0.0, SVG Export Plug-In . SVG Version: 6.00 Build 0)  -->
<svg version="1.1"
	 id="svg17847" xmlns:cc="http://creativecommons.org/ns#" xmlns:dc="http://purl.org/dc/elements/1.1/" xmlns:inkscape="http://www.inkscape.org/namespaces/inkscape" xmlns:rdf="http://www.w3.org/1999/02/22-rdf-syntax-ns#" xmlns:sodipodi="http://sodipodi.sourceforge.net/DTD/sodipodi-0.dtd" xmlns:svg="http://www.w3.org/2000/svg"
	 xmlns="http://www.w3.org/2000/svg" xmlns:xlink="http://www.w3.org/1999/xlink" x="0px" y="0px" viewBox="0 0 246.4 51.6"
	 style="enable-background:new 0 0 246.4 51.6;" xml:space="preserve">
<style type="text/css">
	.st0{fill-rule:evenodd;clip-rule:evenodd;}
</style>
<g>
	
		<sodipodi:namedview  bordercolor="#666666" borderopacity="1" gridtolerance="10" guidetolerance="10" id="namedview5870" inkscape:current-layer="svg17847" inkscape:cx="372.61592" inkscape:cy="106.54354" inkscape:pageopacity="0" inkscape:pageshadow="2" inkscape:window-height="705" inkscape:window-maximized="1" inkscape:window-width="1366" inkscape:window-x="-8" inkscape:window-y="-8" inkscape:zoom="0.5" objecttolerance="10" pagecolor="#ffffff" showgrid="false">
		</sodipodi:namedview>
</g>
<path id="Fill-1" inkscape:connector-curvature="0" class="st0" d="M91.4,20c0-0.4,0.3-0.6,0.6-0.6c0.6,0,1.4,0.6,1.9,1.8
	c-0.2,0-0.4,0.1-0.6,0.1C92.2,21.2,91.4,20.8,91.4,20L91.4,20z M30.6,20c0-0.4,0.2-0.6,0.6-0.6c0.5,0,1.3,0.6,1.8,1.8
	C31.4,21.2,30.6,20.8,30.6,20z M42.3,14c0-6.3,1.2-7.2,1.6-7.2c0.7,0,0.8,0.4,0.8,2.8c0,2.5-1.1,5.7-2.4,7.5V14z M85,20.1
	c-0.7,1-1.3,2.4-1.3,4.3c0,3.5,2,6.9,5.9,6.9c3.8,0,6.4-3,6.4-7.2c0-1.2,0-1.4-0.1-1.9c0.9-0.4,1.6-1,2.2-1.4
	c0.5-0.4,0.9-0.6,1.2-0.6c0.4,0,0.5,0.3,0.5,0.8v8.2c0,1.3,0.4,2,1.5,2c1,0,1.6-0.7,2-1.5c1.4-2.9,3.4-6.8,4.3-8.2
	c0.2-0.3,0.4-0.6,0.5-0.6c0.2,0,0.3,0.1,0.3,0.7v6.6c0,1.8,0.8,3.1,2.7,3.1c1.9,0,2.9-1.9,4.6-4.7c0.1-0.2,0.1-0.3,0.1-0.4
	c0-0.4-0.3-0.6-0.7-0.6c-0.4,0-0.6,0.4-1.9,1.8c-0.3,0.3-0.5,0.6-1,0.6c-0.2,0-0.3-0.2-0.3-0.5v-7.4c0-2-0.9-2.8-2-2.8
	c-0.9,0-1.7,0.4-2.5,1.6c-1.4,2.1-2.9,5.1-3.7,6.6c-0.1,0.2-0.2,0.4-0.3,0.4c-0.1,0-0.1-0.1-0.1-0.4v-5.4c0-1.6-0.4-2.8-2.1-2.8
	c-1.7,0-2.6,1.2-3.9,2.1c-0.8,0.6-1.5,1-2.1,1.3c-0.8-2.1-2.4-3.2-3.7-3.2c-1.3,0-2.2,0.8-2.2,2.2c0,1.4,0.8,2.3,2,2.8
	c0.6,0.3,1.2,0.3,2.1,0.3c0.3,0,0.5,0,0.7,0c0.1,0.4,0,1,0,1.5c0,2.1-1.2,4.1-3.5,4.1c-2.4,0-3.7-2.3-3.7-4.9c0-2,0.6-3.6,1.5-4.7
	c0.4-0.4,0.7-0.7,0.7-1.1c0-0.2-0.3-0.2-0.5-0.2c-1.6,0-3.4,0.7-4.6,1.3c-1.6,0.8-3.5,2.2-5.1,3.6c-0.8-1.7-1.7-3.2-2.1-4.3
	c-0.2-0.5-0.3-1-0.6-1c-0.3,0-0.4,0.3-0.6,0.9c-0.8,2.2-4.8,8.8-5.7,9.6c-0.1,0.1-0.2,0.3-0.2,0.3c-0.1,0-0.1,0-0.1-0.3v-7.4
	c0-2-0.8-2.8-1.9-2.8c-0.9,0-1.7,0.4-2.5,1.6c-1.4,2.1-3.1,5.2-3.9,6.7C61.2,25.9,61.1,26,61,26c0,0-0.1-0.2-0.1-0.4v-5.4
	c0-2-0.8-2.8-1.9-2.8c-0.9,0-1.8,0.3-2.5,1.6c-1.8,3-4.7,7.6-5.3,8.3c-0.1,0.1-0.2,0.2-0.3,0.3c-0.1,0-0.1-0.1-0.1-0.3v-7.1
	c0-2-0.8-2.8-1.9-2.8c-1.5,0-2.4,1.4-2.9,2.3c-0.8,1.2-1.8,2.9-2.6,4.4c-0.5,1-1,1.9-1.2,1.9c-0.1,0-0.1-0.4-0.1-1.1v-5.6
	c2.6-2.9,4.3-6.6,4.3-10.5c0-2.3-1-3.5-2.6-3.5c-2.9,0-5.1,4.5-5.1,9.9v4.4c-1.3,0.8-2.6,1.3-4.2,1.6c-0.8-2.4-2.5-3.6-3.8-3.5
	c-1.3,0-2.2,0.8-2.2,2.2c0,2.2,2.2,3.2,4.1,3.2h0.5c0.1,0.4,0.1,0.9,0.1,1.3c0,2.1-1.2,4.1-3.5,4.1c-2.4,0-3.7-2.3-3.7-4.9
	c0-2,0.6-3.6,1.6-4.7c0.4-0.4,0.7-0.8,0.7-1.1c0-0.2-0.3-0.2-0.6-0.2c-1.6,0-5.1,2.2-9.3,6.4c-0.4-3.4-0.8-6.6-0.8-9.8
	c0-3.6,0.7-6.6,0.9-7.5c0.1-0.5,0.1-0.9,0.1-1.1c0-0.3-0.2-0.5-0.6-0.5c-3.4,0-10.9,5.4-10.9,13.5c0,5.8,2.1,8.5,5.8,12.1
	C10.8,34,9,38.3,9,42c0,2.7,0.6,4.8,2.6,4.8c4.2,0,7.4-8.7,7.4-15.2c0-1.9-0.1-3.9-0.2-5.8c1.6-1.6,3.9-3.9,4.5-4.1
	c-0.3,0.9-0.4,1.8-0.4,2.7c0,3.5,2,6.9,5.9,6.9c3.7,0,6.4-3,6.4-7.2c0-0.5,0-1-0.1-1.5c1.3-0.3,2.6-0.6,3.7-1.3v8.5
	c0,1.1,0.8,1.5,1.5,1.5c1,0,1.5-0.7,2.2-2.2c0.6-1.3,2.2-4.2,3.2-5.9c0.8-1.3,1.2-2.2,1.5-2.2c0.1,0,0.2,0.2,0.2,0.7v7.2
	c0,1.9,1,2.4,1.9,2.4c0.8,0,1.4-0.5,1.9-1.2c2.2-3.1,4.5-6.8,5.4-8.4c0.2-0.3,0.4-0.5,0.5-0.5c0.2,0,0.2,0.1,0.2,0.6v7.5
	c0,1.3,0.4,2,1.5,2c1,0,1.6-0.7,2-1.5c1.4-2.9,3.5-6.7,4.3-8.2c0.2-0.3,0.4-0.6,0.5-0.6c0.2,0,0.2,0.2,0.2,0.8v7.1
	c0,1.9,1,2.4,1.9,2.4c1.2,0,1.9-0.8,2.7-1.8c1.4-1.8,3.4-5,4.6-7.1c0.4,0.7,0.9,1.5,1.3,2.4c-1,1.2-2,2.6-2,4.1
	c0,1.6,1.1,2.5,2.2,2.5c1.9,0,3.7-1.9,3.7-4.4c0-1-0.3-2.1-0.7-3.1C81.4,22.2,83.5,20.5,85,20.1L85,20.1z M15.7,29.3
	c0.3,2.2,0.6,4.4,0.6,6.1c0,4-1.3,8.7-3.7,8.7c-0.9,0-1.6-0.9-1.7-2.4C10.9,36.7,13.3,32.4,15.7,29.3L15.7,29.3z M77.1,26.4
	c0.3,0.7,0.4,1.3,0.4,1.9c0,0.7-0.3,1.3-0.7,1.3c-0.3,0-0.7-0.4-0.7-1C76.1,28.1,76.7,27.1,77.1,26.4z M17.2,6.4
	c0,0.3-0.6,1.4-1.3,3.5c-0.8,2.2-1.6,5.3-1.6,9c0,2.2,0.6,5.2,1,8.2L14,28.9c-2.1-2.6-3.5-5.6-3.5-10.6c0-7.1,4.3-12.1,6.6-12.1
	C17.2,6.2,17.2,6.3,17.2,6.4z"/>
<path id="Fill-4" inkscape:connector-curvature="0" class="st0" d="M214.7,20c0-0.4,0.2-0.6,0.6-0.6c0.5,0,1.4,0.6,1.8,1.8
	c-0.2,0-0.4,0.1-0.6,0.1C215.5,21.2,214.7,20.8,214.7,20z M153.9,20c0-0.4,0.3-0.6,0.6-0.6c0.5,0,1.4,0.6,1.8,1.8
	C154.7,21.2,153.9,20.8,153.9,20z M165.6,14c0-6.3,1.2-7.2,1.6-7.2c0.7,0,0.8,0.4,0.8,2.8c0,2.5-1.1,5.7-2.4,7.5L165.6,14z
	 M139.1,29.3c0.3,2.2,0.6,4.4,0.6,6.1c0,4-1.3,8.7-3.7,8.7c-0.9,0-1.6-0.9-1.7-2.4C134.3,36.7,136.7,32.4,139.1,29.3L139.1,29.3z
	 M200.5,26.4c0.3,0.7,0.4,1.3,0.4,1.9c0,0.7-0.3,1.3-0.7,1.3c-0.3,0-0.7-0.4-0.7-1C199.4,28.1,200,27.1,200.5,26.4z M140.6,6.4
	c0,0.3-0.6,1.4-1.3,3.5c-0.8,2.2-1.6,5.3-1.6,9c0,2.2,0.6,5.2,1,8.2l-1.3,1.8c-2.1-2.6-3.5-5.6-3.5-10.6c0-7.1,4.3-12.1,6.6-12.1
	C140.5,6.2,140.6,6.3,140.6,6.4z M133.6,27.4c0.8,1,1.7,2,2.8,3c-2.2,3.6-4,7.8-4,11.6c0,2.7,0.6,4.8,2.7,4.8
	c4.2,0,7.4-8.7,7.4-15.2c0-1.9-0.1-3.9-0.3-5.8c1.6-1.6,3.9-3.9,4.5-4.1c-0.3,0.9-0.4,1.8-0.4,2.7c0,3.5,2,6.9,5.9,6.9
	c3.7,0,6.4-3,6.4-7.2c0-0.5,0-1-0.1-1.5c1.3-0.3,2.6-0.6,3.7-1.3v8.5c0,1.1,0.8,1.5,1.5,1.5c1,0,1.5-0.7,2.2-2.2
	c0.6-1.3,2.2-4.2,3.2-5.9c0.8-1.3,1.2-2.2,1.5-2.2c0.1,0,0.2,0.2,0.2,0.7v7.2c0,1.9,1,2.4,1.9,2.4c0.8,0,1.4-0.5,1.9-1.2
	c2.2-3.1,4.5-6.8,5.4-8.4c0.2-0.3,0.4-0.5,0.5-0.5c0.2,0,0.3,0.1,0.3,0.6v7.5c0,1.3,0.4,2,1.5,2c1,0,1.6-0.7,2-1.5
	c1.4-2.9,3.4-6.7,4.3-8.2c0.2-0.3,0.4-0.6,0.6-0.6c0.2,0,0.2,0.2,0.2,0.8v7.1c0,1.9,1,2.4,1.9,2.4c1.2,0,1.9-0.8,2.7-1.8
	c1.4-1.8,3.4-5,4.6-7.1c0.4,0.7,0.9,1.5,1.3,2.4c-1,1.2-2,2.6-2,4.1c0,1.6,1.1,2.5,2.2,2.5c1.9,0,3.7-1.9,3.7-4.4
	c0-1-0.3-2.1-0.7-3.1c1.7-1.7,3.8-3.3,5.3-3.7c-0.7,1-1.3,2.4-1.3,4.3c0,3.5,2,6.9,5.9,6.9c3.8,0,6.4-3,6.4-7.2c0-1.2,0-1.4-0.1-1.9
	c0.9-0.4,1.6-1,2.2-1.4c0.5-0.4,0.9-0.6,1.2-0.6c0.4,0,0.6,0.3,0.6,0.8v8.2c0,1.3,0.4,2,1.5,2c1,0,1.6-0.7,2-1.5
	c1.4-2.9,3.4-6.8,4.3-8.2c0.2-0.3,0.4-0.6,0.5-0.6c0.2,0,0.3,0.1,0.3,0.7v6.6c0,1.8,0.8,3.1,2.7,3.1c1.9,0,2.9-1.9,4.6-4.7
	c0.1-0.2,0.1-0.3,0.1-0.4c0-0.4-0.3-0.6-0.7-0.6c-0.4,0-0.6,0.4-1.8,1.8c-0.2,0.3-0.5,0.6-1,0.6c-0.2,0-0.3-0.2-0.3-0.5v-7.4
	c0-2-0.9-2.8-2-2.8c-0.9,0-1.7,0.4-2.5,1.6c-1.4,2.1-2.9,5.1-3.7,6.6c-0.1,0.2-0.2,0.4-0.3,0.4c-0.1,0-0.1-0.1-0.1-0.4v-5.4
	c0-1.6-0.4-2.8-2.1-2.8c-1.7,0-2.6,1.2-3.9,2.1c-0.8,0.6-1.5,1-2.1,1.3c-0.8-2.1-2.4-3.2-3.7-3.2c-1.3,0-2.2,0.8-2.2,2.2
	c0,1.4,0.8,2.3,2,2.8c0.6,0.3,1.2,0.3,2.1,0.3c0.2,0,0.5,0,0.7,0c0.1,0.4,0,1,0,1.5c0,2.1-1.2,4.1-3.5,4.1c-2.4,0-3.7-2.3-3.7-4.9
	c0-2,0.6-3.6,1.5-4.7c0.4-0.4,0.7-0.7,0.7-1.1c0-0.2-0.3-0.2-0.5-0.2c-1.6,0-3.4,0.7-4.6,1.3c-1.6,0.8-3.5,2.2-5,3.6
	c-0.8-1.7-1.7-3.2-2.1-4.3c-0.2-0.5-0.3-1-0.6-1c-0.3,0-0.4,0.3-0.6,0.9c-0.8,2.2-4.8,8.8-5.7,9.6c-0.1,0.1-0.2,0.3-0.3,0.3
	c-0.1,0-0.1,0-0.1-0.3v-7.4c0-2-0.8-2.8-1.9-2.8c-0.9,0-1.7,0.4-2.5,1.6c-1.4,2.1-3.1,5.2-3.9,6.7c-0.1,0.3-0.2,0.3-0.3,0.3
	c0,0-0.1-0.2-0.1-0.4v-5.4c0-2-0.8-2.8-1.9-2.8c-0.9,0-1.8,0.3-2.5,1.6c-1.8,3-4.7,7.6-5.3,8.3c-0.1,0.1-0.2,0.2-0.3,0.3
	c-0.1,0-0.1-0.1-0.1-0.3v-7.1c0-2-0.8-2.8-1.9-2.8c-1.5,0-2.4,1.4-2.9,2.3c-0.8,1.2-1.8,2.9-2.6,4.4c-0.5,1-1,1.9-1.2,1.9
	c-0.1,0-0.1-0.4-0.1-1.1v-5.6c2.7-2.9,4.3-6.6,4.3-10.5c0-2.3-1-3.5-2.6-3.5c-2.9,0-5.1,4.5-5.1,9.9v4.4c-1.3,0.8-2.6,1.3-4.2,1.6
	c-0.8-2.4-2.5-3.6-3.8-3.5c-1.3,0-2.2,0.8-2.2,2.2c0,2.2,2.2,3.2,4.1,3.2h0.6c0.1,0.4,0.1,0.9,0.1,1.3c0,2.1-1.2,4.1-3.5,4.1
	c-2.4,0-3.7-2.3-3.7-4.9c0-2,0.6-3.6,1.5-4.7c0.4-0.4,0.7-0.8,0.7-1.1c0-0.2-0.3-0.2-0.5-0.2c-1.6,0-5.1,2.2-9.3,6.4
	c-0.4-3.4-0.8-6.6-0.8-9.8c0-3.6,0.7-6.6,0.9-7.5c0.1-0.5,0.1-0.9,0.1-1.1c0-0.3-0.2-0.5-0.6-0.5c-3.4,0-10.9,5.4-10.9,13.5
	c0,3.3,0.7,5.7,2,7.7c-0.5-0.1-0.8-0.1-1.2-0.1c-1.3,0-2.6,0.3-3.4,0.5v-0.8c0-1.8-0.4-4.3-1.2-5.1c-0.1-0.1-0.2-0.1-0.3-0.1
	c-0.3,0-0.8,0.2-1.2,0.4c-0.5,0.3-1,0.5-1,0.7c0,0.1,0,0.2,0.1,0.4c0.3,0.4,1.1,1.3,1.4,3.2c-1.4-1.4-3.1-2.1-5.2-2.1
	c-2.5,0-3.3,1.1-3.3,2.3c0,2.2,2.9,3.3,6.6,3.3c0.7,0,1.4-0.1,2.2-0.3c0,0.7,0.1,1.3,0.1,1.8c0,0.7,0.1,1.3,0.6,1.3
	c0.7,0,1.1-1.4,1.2-3.5c1.3-0.3,2.7-0.6,3.8-0.6C132.2,27.2,132.9,27.3,133.6,27.4L133.6,27.4z M125.3,27c-0.7,0.1-1.1,0.1-1.9,0.1
	c-1.6,0-2.9-0.6-2.9-1.6c0-0.6,0.3-0.9,1.1-0.9C123,24.6,124.1,25.5,125.3,27L125.3,27z"/>
</svg>
