<?xml version="1.0" encoding="utf-8"?>
<!-- Generator: Adobe Illustrator 23.0.0, SVG Export Plug-In . SVG Version: 6.00 Build 0)  -->
<svg version="1.1" id="Capa_1" xmlns="http://www.w3.org/2000/svg" xmlns:xlink="http://www.w3.org/1999/xlink" x="0px" y="0px"
	 viewBox="0 0 143 48" style="enable-background:new 0 0 143 48;" xml:space="preserve">
<g>
	<g id="main_layer_1_">
		<g>
			<path d="M31.1,32.6c0.4,1.5,1,2,2.2,2c1.2,0,1.8-0.7,1.8-2V7.4h8v25.1c0,3.5-0.5,5.1-2.3,6.9c-1.3,1.3-3.7,2.3-6.8,2.3
				c-2.5,0-4.8-0.8-6.4-2.3c-1.3-1.3-2.1-2.6-3.2-6.9l-4.5-16.8c-0.4-1.5-1-2-2.2-2c-1.2,0-1.8,0.7-1.8,2V41h-8V15.8
				c0-3.5,0.5-5.1,2.3-6.9C11.5,7.7,14,6.7,17,6.7c2.5,0,4.8,0.8,6.4,2.3c1.3,1.3,2.1,2.6,3.2,6.9L31.1,32.6z"/>
			<path d="M127.6,41l-8.4-26.3c-0.1-0.3-0.2-0.5-0.3-0.7c-0.2-0.3-0.6-0.4-1-0.4c-0.4,0-0.7,0.1-1,0.4c-0.1,0.2-0.2,0.4-0.3,0.7
				L108.2,41h-7.5l9.2-28.7c0.5-1.5,1.2-2.8,2-3.6c1.5-1.5,3.2-2.2,6-2.2c2.8,0,4.5,0.8,6,2.2c0.9,0.8,1.6,2.1,2,3.6l9.2,28.7
				L127.6,41L127.6,41z"/>
			<path d="M90.6,41c4.9,0,7.2-1,9.1-2.9c2.1-2.1,3.1-4.3,3.1-7.7c0-3-1.1-5.7-2.7-7.4c-2.2-2.2-4.8-2.8-9.2-2.8h-6.3
				c0,0-3.2,0.1-3.9-0.6c-0.5-0.5-0.7-1.2-0.7-2.1c0-0.9,0.2-1.8,0.8-2.4c0.5-0.5,1.3-0.8,2.7-0.6h17.1V7.4H84.1
				c-4.9,0-7.2,1-9.1,2.9C72.9,12.4,72,14.6,72,18c0,3,1.1,5.7,2.7,7.4c2.2,2.2,4.8,2.8,9.2,2.8h6.6c0,0,3.2-0.2,3.9,0.5
				c0.5,0.5,0.7,1.2,0.7,2.1c0,0.9-0.2,1.8-0.8,2.4c-0.5,0.5-2.7,0.7-2.7,0.7H73.8l-6.9-21.7c-0.5-1.5-1.2-2.8-2-3.6
				c-1.5-1.5-3.3-2.2-6-2.2s-4.5,0.8-6,2.2c-0.9,0.9-1.6,2.1-2,3.6L41.5,41h7.1l8.6-26.7c0.1-0.3,0.2-0.5,0.3-0.7
				c0.2-0.3,0.6-0.4,1-0.4s0.8,0.2,1,0.4c0.1,0.2,0.2,0.4,0.3,0.7L68.4,41L90.6,41L90.6,41z"/>
		</g>
	</g>
</g>
</svg>
