<?xml version="1.0" encoding="utf-8"?>
<!-- Generator: Adobe Illustrator 23.0.0, SVG Export Plug-In . SVG Version: 6.00 Build 0)  -->
<svg version="1.1"
	 id="svg4841" xmlns:cc="http://creativecommons.org/ns#" xmlns:dc="http://purl.org/dc/elements/1.1/" xmlns:inkscape="http://www.inkscape.org/namespaces/inkscape" xmlns:rdf="http://www.w3.org/1999/02/22-rdf-syntax-ns#" xmlns:sodipodi="http://sodipodi.sourceforge.net/DTD/sodipodi-0.dtd" xmlns:svg="http://www.w3.org/2000/svg"
	 xmlns="http://www.w3.org/2000/svg" xmlns:xlink="http://www.w3.org/1999/xlink" x="0px" y="0px" viewBox="0 0 293.3 54.1"
	 style="enable-background:new 0 0 293.3 54.1;" xml:space="preserve">
<sodipodi:namedview  bordercolor="#666666" borderopacity="1" gridtolerance="10" guidetolerance="10" id="namedview23" inkscape:current-layer="svg4841" inkscape:cx="515.99551" inkscape:cy="53.589115" inkscape:pageopacity="0" inkscape:pageshadow="2" inkscape:window-height="705" inkscape:window-maximized="1" inkscape:window-width="1366" inkscape:window-x="-8" inkscape:window-y="-8" inkscape:zoom="0.7170963" objecttolerance="10" pagecolor="#ffffff" showgrid="false" units="px">
	</sodipodi:namedview>
<path id="path4200" inkscape:connector-curvature="0" d="M60.7,6.1L60.7,6.1v37c0,2.9,1.7,5,5.4,5H72V6.1H60.7L60.7,6.1z
	 M255.6,36.1L255.6,36.1c0,0-7.1-20.4-8.5-24.2c-0.8-2.6-2.1-5.8-7.9-5.8H226V48h4.5c3.4,0,5.6-1.5,5.6-5.1V13.6h0.2L249.1,48h12.1
	l12.9-34.4h0.2V43c0,2.9,1.6,5,5.6,5h5.6V6.1h-12.5c-4.4,0-7.1,1.2-8.5,5.1c-0.9,2.6-8.7,24.9-8.7,24.9L255.6,36.1L255.6,36.1z
	 M32,36.5L32,36.5c0,0-9.7-25.4-10.3-26.9c-0.7-2-1.7-3.6-5.5-3.6l-8.3,0L25.1,48h12.5L55.5,6.1h-7.4c-3.2,0-4.4,1.4-5.2,3.4
	L32.2,36.5L32,36.5L32,36.5z M155.4,14.9L155.4,14.9h5.8c4.1,0,6.5-1.5,6.5-5.3V6.1h-16.4c-13.6,0-20.2,8.1-20.2,21
	c0,16,10,21,20.2,21h16.4v-3.6c0-3.7-2.5-5.2-6.3-5.2h-6c-6.5,0-12.5-2.3-12.5-12.1C142.9,18.5,147.5,14.9,155.4,14.9z M111.6,32.3
	L111.6,32.3c0,4.2-1.9,7.5-7.6,7.5h-5.9c-4.1,0-6.5-1.1-6.5-4.5c0-3.2,2.3-4.5,6.5-4.5h13.4V32.3z M106.1,6.1L106.1,6.1H83.1v3.2
	c0,2.8,1.5,5.6,5.5,5.6c1.8,0,14.7,0,14.7,0c6.2,0,8.3,2,8.3,6.9v0.7H96c-11.6,0-15.8,5.4-15.8,12.7C80.2,44.1,86.1,48,96,48h10.4
	c13.6,0,16.5-6.8,16.5-15.8V21.8C122.9,12.1,119.3,6.1,106.1,6.1z M194.1,39.6L194.1,39.6c7.3,0,11.6-5.1,11.6-12.6
	c0-8-4.6-12.6-11.6-12.6c-7.5,0-11.7,5-11.7,12.6C182.4,34.3,186.5,39.6,194.1,39.6z M194.1,5.6L194.1,5.6
	c13.7,0,23.5,7.5,23.5,21.4c0,13.3-9,21.5-23.5,21.5c-14.1,0-23.5-7.8-23.5-21.5C170.6,13.5,179.9,5.6,194.1,5.6L194.1,5.6z"/>
</svg>
