<?xml version="1.0" encoding="utf-8"?>
<!-- Generator: Adobe Illustrator 23.0.0, SVG Export Plug-In . SVG Version: 6.00 Build 0)  -->
<svg version="1.1" id="Capa_1" xmlns="http://www.w3.org/2000/svg" xmlns:xlink="http://www.w3.org/1999/xlink" x="0px" y="0px"
	 viewBox="0 0 40 40" style="enable-background:new 0 0 40 40;" xml:space="preserve">
<path d="M20,29.6c-3.4,0-6.7,0-10.1,0c-1.7,0-2.8-1.1-2.8-2.8c0-4.5,0-9,0-13.4c0-2,1.1-3,3.1-3c6.5,0,13,0,19.5,0c2,0,3.1,1,3.1,3
	c0,4.5,0,9,0,13.5c0,1.6-1.1,2.7-2.7,2.7C26.8,29.6,23.4,29.6,20,29.6z M9.1,11.5c0.1,0.2,0.2,0.3,0.2,0.4c2.9,3.1,5.7,6.3,8.6,9.4
	c1.2,1.3,3,1.2,4.2-0.2c2.7-3,5.5-6,8.2-8.9c0.1-0.2,0.3-0.3,0.5-0.6C23.6,11.5,16.4,11.5,9.1,11.5z M9.1,28.5c7.4,0,14.5,0,21.9,0
	c-2.7-2.4-5.1-4.7-7.6-7c-1.9,2.3-4.7,2.2-6.6,0C14.2,23.8,11.7,26.1,9.1,28.5z M16,20.7c-2.6-2.8-5.1-5.5-7.7-8.4
	c0,5.2,0,10.2,0,15.4C11,25.4,13.5,23.1,16,20.7z M31.7,12.3C29,15.2,26.5,18,24,20.7c2.5,2.3,5,4.6,7.7,7
	C31.7,22.6,31.7,17.6,31.7,12.3z"/>
</svg>
