<?xml version="1.0" encoding="utf-8"?>
<!-- Generator: Adobe Illustrator 23.0.0, SVG Export Plug-In . SVG Version: 6.00 Build 0)  -->
<svg version="1.1" id="Capa_1" xmlns="http://www.w3.org/2000/svg" xmlns:xlink="http://www.w3.org/1999/xlink" x="0px" y="0px"
	 viewBox="0 0 40 40" style="enable-background:new 0 0 40 40;" xml:space="preserve">
<path d="M15.2,25.4c-2.2-0.3-3.6-1.3-4.4-3.3c0.6,0,1.2-0.1,1.8-0.1c-2.1-0.9-3.4-2.4-3.5-4.8c0.7,0.2,1.3,0.4,1.8,0.5
	c-1.8-1.9-2.3-3.9-1.2-6.4c2.6,3,5.8,4.7,9.8,5c0-0.2,0-0.4,0-0.6c-0.1-2,0.6-3.6,2.4-4.6c1.8-1,3.6-0.9,5.2,0.4
	c0.6,0.4,1,0.5,1.6,0.2c0.6-0.2,1.2-0.5,1.9-0.7c0.1,0,0.1,0.1,0.2,0.1c-0.6,0.8-1.2,1.5-1.8,2.3c0.7-0.2,1.4-0.4,2.2-0.5
	c0,0,0.1,0.1,0.1,0.1c-0.5,0.6-1,1.2-1.6,1.7c-0.4,0.4-0.6,0.7-0.6,1.3c-0.1,6.2-4.2,11.6-10.2,13.1c-3.6,0.9-7.1,0.4-10.4-1.6
	C11,27.5,13.2,27,15.2,25.4z"/>
</svg>
